HIERARCHY
ROOT Hips
{
	OFFSET -14.64140 90.27770 -84.91600
	CHANNELS 6 Xposition Yposition Zposition Zrotation Xrotation Yrotation
	JOINT Spine
	{
		OFFSET 0.00000 13.20850 -1.60436
		CHANNELS 3 Zrotation Xrotation Yrotation
		JOINT Spine1
		{
			OFFSET 0.00000 8.61716 0.00000
			CHANNELS 3 Zrotation Xrotation Yrotation
			JOINT Spine2
			{
				OFFSET 0.00000 8.61717 0.00000
				CHANNELS 3 Zrotation Xrotation Yrotation
				JOINT Spine3
				{
					OFFSET 0.00000 8.61717 0.00000
					CHANNELS 3 Zrotation Xrotation Yrotation
					JOINT Neck
					{
						OFFSET 0.00000 11.07920 1.10792
						CHANNELS 3 Zrotation Xrotation Yrotation
						JOINT Neck1
						{
							OFFSET 0.00000 7.08032 0.00000
							CHANNELS 3 Zrotation Xrotation Yrotation
							JOINT Head
							{
								OFFSET 0.00000 7.08031 0.00000
								CHANNELS 3 Zrotation Xrotation Yrotation
								End site
								{
									OFFSET 0.00000 0.00000 0.00000
								}
							}
						}
					}
					JOINT RightShoulder
					{
						OFFSET -0.01000 7.91373 5.19711
						CHANNELS 3 Zrotation Xrotation Yrotation
						JOINT RightArm
						{
							OFFSET -18.41580 0.00000 0.00000
							CHANNELS 3 Zrotation Xrotation Yrotation
							JOINT RightForeArm
							{
								OFFSET -29.11090 0.00000 0.00000
								CHANNELS 3 Zrotation Xrotation Yrotation
								JOINT RightHand
								{
									OFFSET -24.65040 0.00000 0.00000
									CHANNELS 3 Zrotation Xrotation Yrotation
									JOINT RightHandThumb1
									{
										OFFSET -5.35114 -0.85590 3.97906
										CHANNELS 3 Zrotation Xrotation Yrotation
										JOINT RightHandThumb2
										{
											OFFSET -4.52789 0.00000 0.00000
											CHANNELS 3 Zrotation Xrotation Yrotation
											JOINT RightHandThumb3
											{
												OFFSET -2.46976 0.00000 0.00000
												CHANNELS 3 Zrotation Xrotation Yrotation
												End site
												{
													OFFSET 0.00000 0.00000 0.00000
												}
											}
										}
									}
									JOINT RightHandIndex1
									{
										OFFSET -14.26970 0.00000 2.88139
										CHANNELS 3 Zrotation Xrotation Yrotation
										JOINT RightHandIndex2
										{
											OFFSET -5.48836 0.00000 0.00000
											CHANNELS 3 Zrotation Xrotation Yrotation
											JOINT RightHandIndex3
											{
												OFFSET -3.01859 0.00000 0.00000
												CHANNELS 3 Zrotation Xrotation Yrotation
												End site
												{
													OFFSET 0.00000 0.00000 0.00000
												}
											}
										}
									}
									JOINT RightHandMiddle1
									{
										OFFSET -14.26970 0.00000 -0.09147
										CHANNELS 3 Zrotation Xrotation Yrotation
										JOINT RightHandMiddle2
										{
											OFFSET -6.17441 0.00000 0.00000
											CHANNELS 3 Zrotation Xrotation Yrotation
											JOINT RightHandMiddle3
											{
												OFFSET -3.56743 0.00000 0.00000
												CHANNELS 3 Zrotation Xrotation Yrotation
												End site
												{
													OFFSET 0.00000 0.00000 0.00000
												}
											}
										}
									}
									JOINT RightHandRing1
									{
										OFFSET -12.69180 0.00000 -3.06433
										CHANNELS 3 Zrotation Xrotation Yrotation
										JOINT RightHandRing2
										{
											OFFSET -5.62556 0.00000 0.00000
											CHANNELS 3 Zrotation Xrotation Yrotation
											JOINT RightHandRing3
											{
												OFFSET -3.56744 0.00000 0.00000
												CHANNELS 3 Zrotation Xrotation Yrotation
												End site
												{
													OFFSET 0.00000 0.00000 0.00000
												}
											}
										}
									}
									JOINT RightHandPinky1
									{
										OFFSET -11.11390 0.00000 -6.03719
										CHANNELS 3 Zrotation Xrotation Yrotation
										JOINT RightHandPinky2
										{
											OFFSET -4.52789 0.00000 0.00000
											CHANNELS 3 Zrotation Xrotation Yrotation
											JOINT RightHandPinky3
											{
												OFFSET -2.46976 0.00000 0.00000
												CHANNELS 3 Zrotation Xrotation Yrotation
												End site
												{
													OFFSET 0.00000 0.00000 0.00000
												}
											}
										}
									}
								}
							}
						}
					}
					JOINT LeftShoulder
					{
						OFFSET 0.01000 7.91373 5.19711
						CHANNELS 3 Zrotation Xrotation Yrotation
						JOINT LeftArm
						{
							OFFSET 18.41580 0.00000 0.00000
							CHANNELS 3 Zrotation Xrotation Yrotation
							JOINT LeftForeArm
							{
								OFFSET 29.11090 0.00000 0.00000
								CHANNELS 3 Zrotation Xrotation Yrotation
								JOINT LeftHand
								{
									OFFSET 24.65040 0.00000 0.00000
									CHANNELS 3 Zrotation Xrotation Yrotation
									JOINT LeftHandThumb1
									{
										OFFSET 5.35114 -0.85590 3.97906
										CHANNELS 3 Zrotation Xrotation Yrotation
										JOINT LeftHandThumb2
										{
											OFFSET 4.52789 0.00000 0.00000
											CHANNELS 3 Zrotation Xrotation Yrotation
											JOINT LeftHandThumb3
											{
												OFFSET 2.46977 0.00000 0.00000
												CHANNELS 3 Zrotation Xrotation Yrotation
												End site
												{
													OFFSET 0.00000 0.00000 0.00000
												}
											}
										}
									}
									JOINT LeftHandIndex1
									{
										OFFSET 14.26970 0.00000 2.88139
										CHANNELS 3 Zrotation Xrotation Yrotation
										JOINT LeftHandIndex2
										{
											OFFSET 5.48836 0.00000 0.00000
											CHANNELS 3 Zrotation Xrotation Yrotation
											JOINT LeftHandIndex3
											{
												OFFSET 3.01859 0.00000 0.00000
												CHANNELS 3 Zrotation Xrotation Yrotation
												End site
												{
													OFFSET 0.00000 0.00000 0.00000
												}
											}
										}
									}
									JOINT LeftHandMiddle1
									{
										OFFSET 14.26970 0.00000 -0.09147
										CHANNELS 3 Zrotation Xrotation Yrotation
										JOINT LeftHandMiddle2
										{
											OFFSET 6.17440 0.00000 0.00000
											CHANNELS 3 Zrotation Xrotation Yrotation
											JOINT LeftHandMiddle3
											{
												OFFSET 3.56744 0.00000 0.00000
												CHANNELS 3 Zrotation Xrotation Yrotation
												End site
												{
													OFFSET 0.00000 0.00000 0.00000
												}
											}
										}
									}
									JOINT LeftHandRing1
									{
										OFFSET 12.69180 0.00000 -3.06433
										CHANNELS 3 Zrotation Xrotation Yrotation
										JOINT LeftHandRing2
										{
											OFFSET 5.62556 0.00000 0.00000
											CHANNELS 3 Zrotation Xrotation Yrotation
											JOINT LeftHandRing3
											{
												OFFSET 3.56744 0.00000 0.00000
												CHANNELS 3 Zrotation Xrotation Yrotation
												End site
												{
													OFFSET 0.00000 0.00000 0.00000
												}
											}
										}
									}
									JOINT LeftHandPinky1
									{
										OFFSET 11.11390 0.00000 -6.03719
										CHANNELS 3 Zrotation Xrotation Yrotation
										JOINT LeftHandPinky2
										{
											OFFSET 4.52789 0.00000 0.00000
											CHANNELS 3 Zrotation Xrotation Yrotation
											JOINT LeftHandPinky3
											{
												OFFSET 2.46976 0.00000 0.00000
												CHANNELS 3 Zrotation Xrotation Yrotation
												End site
												{
													OFFSET 0.00000 0.00000 0.00000
												}
											}
										}
									}
								}
							}
						}
					}
					JOINT pCube4
					{
						OFFSET 0.00000 10.91090 1.10792
						CHANNELS 3 Zrotation Xrotation Yrotation
						End site
						{
							OFFSET 0.00000 0.00000 0.00000
						}
					}
				}
			}
		}
	}
	JOINT RightUpLeg
	{
		OFFSET -9.98441 0.00000 0.00000
		CHANNELS 3 Zrotation Xrotation Yrotation
		JOINT RightLeg
		{
			OFFSET 0.00000 -42.11790 0.00000
			CHANNELS 3 Zrotation Xrotation Yrotation
			JOINT RightFoot
			{
				OFFSET 0.00000 -45.00020 -0.00001
				CHANNELS 3 Zrotation Xrotation Yrotation
				JOINT RightForeFoot
				{
					OFFSET 0.00000 -3.74820 0.00000
					CHANNELS 3 Zrotation Xrotation Yrotation
					JOINT RightToeBase
					{
						OFFSET 0.00000 0.06325 14.43120
						CHANNELS 3 Zrotation Xrotation Yrotation
						End site
						{
							OFFSET 0.00000 0.00000 0.00000
						}
					}
				}
			}
		}
	}
	JOINT LeftUpLeg
	{
		OFFSET 9.98441 0.00000 0.00000
		CHANNELS 3 Zrotation Xrotation Yrotation
		JOINT LeftLeg
		{
			OFFSET 0.00000 -42.11800 0.00000
			CHANNELS 3 Zrotation Xrotation Yrotation
			JOINT LeftFoot
			{
				OFFSET 0.00000 -45.00070 0.00000
				CHANNELS 3 Zrotation Xrotation Yrotation
				JOINT LeftForeFoot
				{
					OFFSET 0.00000 -3.74824 0.00000
					CHANNELS 3 Zrotation Xrotation Yrotation
					JOINT LeftToeBase
					{
						OFFSET 0.00000 0.06325 14.43110
						CHANNELS 3 Zrotation Xrotation Yrotation
						End site
						{
							OFFSET 0.00000 0.00000 0.00000
						}
					}
				}
			}
		}
	}
}
MOTION
Frames: 4
Frame Time: 0.050000
-0.035908906605517536 -0.03071999132928943 0.013190602840350145 -0.016221288922580256 -0.030373835732023194 -0.03010445926167767 4.539449649636392 3.117357277387565 -2.1016921284198395 -0.74774287383857 3.5323126008549246 0.33030565122968225 -0.6571157428110626 -1.093054159804205 -0.11846860947548246 -0.4058836825837428 -0.24984487831181548 -0.4436864917677296 -0.1918247347355025 12.35968399201804 -0.9923020846552583 0.30433180748876676 -0.4795328196928719 -1.4157518295942886 0.6869617529046407 -16.76123731632405 -0.14534315879711335 -9.381935748580863 3.167316690260628 -18.49494156702363 77.42396598345411 5.429748088121045 -0.1674837605861516 -17.701088330703914 -4.464954368730751 59.27603355241434 22.310817035699678 -0.26410783878288835 -7.186779713582077 4.554228716075513 -0.08286519816515106 -1.6253080192010478 -0.01257716043426492 0.001741504284916193 -56.21415464504642 0.021081026419991593 0.023032622079025344 -56.246786513142084 -38.785843828921536 -0.033379906975475444 -0.047123240357576264 0.004352610706648814 -0.002848332525154108 -0.0039734569782553615 -0.010047248370749188 -0.004193994329754015 0.010042016971379486 -36.69529336096382 -0.03212281698511047 0.007435589709191637 -0.023098056585051097 -0.027704583201248034 0.023974071806790582 -0.0027085291941937894 -0.0012674848427824774 -0.023225113482611113 -19.763146189934183 0.0040774286670169566 -0.009100596874412914 -0.009455023775894566 0.012407418456673862 -0.03225099003401808 0.021522842520546395 -0.017726370709024195 0.012427934104042143 24.075617433356538 0.012003714159144153 0.020579871793947394 28.910430942814525 -0.03133207380340327 0.039374253390038735 28.827007841279805 -0.04649821218927053 0.04337655308911202 10.142270816135312 2.442394128801062 15.280760843021092 -72.68241526314614 19.91744584908081 -13.905383281656205 -40.63883830434959 6.7150118810524475 -90.50692854428128 -21.77765843068694 -9.790300523577157 6.606603408841654 -0.45992306257236226 0.033246405576755726 -8.153590666654482 0.0006726407261107651 0.014754891055473259 44.59003172736873 0.0033850771108063136 0.046457671615213816 44.530181004200806 12.501660261891962 -0.023125205181782946 -0.04470781576651876 0.004255996296376864 -0.023641790814007982 -0.03952580413010964 -0.004342681086809948 -0.028673097199780527 -0.04283965739869617 11.058697688661322 -0.021493926187630574 -0.04615396165819166 -0.025654521867711867 -0.008630713273552061 -0.019866394461624026 -0.001660641965268664 -0.010582068518894878 0.0012593084808715247 4.758431217886169 0.03513806639273654 0.02676744901611173 -0.03834023366574326 0.003087953410094499 -0.024737161645106566 0.006574725183928159 0.03817921367733244 0.01181084500784624 -5.565082336311138 -0.025014476559345033 -0.03353138146460701 -6.691678524028119 0.04343922717979916 -0.027272530776136922 -6.726416466097434 0.0461656062242947 0.023010885674886607 -0.02336097327182471 0.0010836883886884293 -0.020909881024903296 8.094021775455957 3.4570080111361556 -19.215245387717616 -0.004963444179074823 10.377007784543224 0.016858258648683774 -5.592785367012045 -15.62667869826421 3.163493505377402 -0.0005740435545158768 -0.04735417657731579 0.0404835656112597 -0.004295130288421593 4.684706817413109 0.022637603045139353 12.456134242129215 -8.208780431328751 6.850505898311633 0.006794881034384649 46.40935893814216 -0.019690462370061133 -4.337814086258165 -14.705009044344136 -3.844272439266879 -0.0390796626468781 -0.03596828960732038 -0.01697783478268301 -0.012720281502213755 -10.771016049831683 -0.006237633377117412 
0.00316122102070961 0.033937370085971495 0.0017324242839433894 -0.016245256847397718 0.029933103075501316 -0.023534558838425347 4.4879988828086965 3.0942344256512455 -2.080059533991125 -0.8014869488165214 3.5489729103936485 0.3592623118735989 -0.6433861691292918 -1.0574429541213453 -0.08813147115155026 -0.3972601410749636 -0.2194655269756844 -0.46250593385008076 -0.06329860936079182 12.266249956256875 -1.0274928416899247 0.37758792383814294 -0.4455189602582847 -1.6300837846143892 0.7626598990229368 -16.76118354159064 -0.21728180829434407 -9.33280962835198 3.156660446598279 -18.474444597731022 77.7533965561201 5.1496631578854295 -0.013115072008743775 -18.06824575625339 -4.761302210132074 59.720208077987714 22.523001870544107 -0.26843669589023234 -7.36258694829995 4.565855528732731 -0.15582908988299193 -1.6120042023026846 -0.023590459065792074 -0.032253934645215636 -56.21527135698949 -0.046056057611306475 0.025029630895720436 -56.19348531487119 -38.80011104109445 0.005524711144539276 -0.039402385574265196 -0.01965085913173571 -0.019532879134232354 -0.041558484294483396 0.028636831902024387 -0.02545041459051574 0.0297630175503178 -36.67776557138689 0.04076133822018692 0.042815087547781606 0.044742075765397876 -0.006778095676623718 -0.04173455173218506 -0.03814646890280691 0.010272729720656968 0.041931523660037336 -19.7670289033398 0.03884103279836341 0.04319429030886211 0.04326275354430792 0.018097846018518954 -0.025474755599921968 -0.007033627428855902 -0.04006092657983494 -0.002764714329794892 24.047739034237157 -0.029904973324173932 0.033496805842776096 28.9061591475988 0.019312445685605455 0.012974612379832702 28.904315759571247 -0.029817806429357347 -0.039319705682808404 9.982863104371242 2.411413800293029 15.268590065005496 -73.60562373739866 19.583781413563003 -12.580308383873499 -43.765937664512236 6.807674923587487 -90.95519384564969 -21.724156990798726 -9.805615914436554 6.691707293446703 -0.42968366434618244 0.029341688513392757 -8.089118422662182 -0.03172379062725171 0.010316398665692502 44.5917546114819 -0.03388903456395516 0.005819802041034689 44.60728796438318 12.480498893583617 0.04357497117314269 0.00999747436150906 -0.015321791552678312 -0.025879355653333706 -0.005768034025905277 0.012799094442579532 0.0034136601377203583 -0.010485115140216484 11.101309687868298 -0.027763507520354468 -0.0192036728331262 -0.024946981978872018 0.02444926773429384 0.025290742703196187 0.0445580613398605 -0.009926110529434108 0.03970951774960376 4.7236237760871616 -0.007208710317554764 -0.0012185378038060766 -0.022415219132115565 0.009326161611609925 -0.004543067050381266 0.00404370409955949 -0.0025292865193414023 0.008802858582205012 -5.56556191373073 0.03795105889775492 -0.026782846117168392 -6.725118760482989 -0.018667935890170052 0.001350455187388641 -6.713341344591458 0.012212278133913684 -0.04471710339037849 0.006239924587482483 0.024438035623595512 -0.021319902382097366 8.08639378369952 3.450672689811817 -19.22133482860946 0.023275620693090346 10.366904382453951 -0.010838730391410561 -5.667067568079045 -15.702319240696866 3.1989706777425138 -0.032720066242549986 0.04181339282748376 -0.006862050424099408 -0.025494563396361865 4.721125662424497 0.014032915208935641 12.417697110309245 -8.214939277930146 6.885436968330376 -0.047498054186445544 46.349560073707345 0.02969251312646498 -4.310299318895975 -14.740769363082554 -3.8397594054793625 -0.03123285606850241 0.003734990177087945 -0.049706643569093475 0.04228942744790428 -10.717864060001034 -0.012562304232245731 
0.014489691674203498 -0.02043559181092773 -0.03996771603913507 0.01860266075240419 0.022612217313507918 0.02578509754531487 4.328013848075232 3.011947275554622 -2.039312429306561 -0.7848033307741853 3.552879128748764 0.3580347536826745 -0.6651736812911627 -1.086176411669822 -0.04077187328055643 -0.44445751197168115 -0.32225455173901796 -0.48042602302869325 -0.13580731786199246 12.136213588279842 -1.0068168940391569 0.3380451971550894 -0.5403670945678255 -1.5579434240652414 0.734238051101911 -16.854667462395156 -0.12848257254082604 -9.219171244723382 3.1299800472735724 -18.36888643887807 78.33698083587026 4.1577127260119155 0.1194320737685643 -16.718038586509937 -3.8844130073714562 58.36985584153158 22.16204656352648 -0.20414435846260232 -6.952201408586186 4.554873359102602 -0.15488762059904826 -1.6418462620351209 -0.013755371691250259 0.02214096901940979 -56.2690180880892 -0.019122141637800544 -0.015782854445726663 -56.248937975864166 -38.76987096614854 -0.04781761808688357 -0.046479653131716765 -0.008817486591800509 0.045828462345279486 0.04507954824584071 0.018960586563862403 -0.00038118892340629427 -0.04642923632624002 -36.70901849688038 -0.028904485115104822 0.03700740055533974 0.01314659542808866 -0.04488980875233031 0.008474226084824064 0.002066006249376385 0.014176563850410889 0.04024364476667668 -19.77783536535495 0.008513174469690282 -0.04451528647571366 0.0005823812002986776 0.01808552188919247 -0.0465627463585478 0.04739258747897344 0.022463013329378327 0.0450631595866815 24.05401098235006 -0.025990392980419812 -0.03599297937161403 28.89526340798325 -0.02727544720236121 -0.04882355838036494 28.88717123875469 -0.019414675358044725 0.008089255259494846 9.804394053231261 2.3774092965782847 15.191256221675658 -74.21839719707286 18.87461978212721 -12.10350807504818 -46.49010661926028 6.6462706369817015 -91.43211527461716 -21.22847055554322 -9.561913882240088 6.368014032018447 -0.49213764803335375 0.08365264936244103 -8.110896533157396 0.019992888435317966 -0.031104748430659357 44.530918563422006 0.018993289712750563 0.016192696163816803 44.599311920003885 12.495724892948735 0.019521624905656686 -0.029001037728156 -0.02348722071289864 -0.019532689836627638 0.031325557252560636 -0.022894199106615245 -0.010038861319562746 0.03918197805944597 11.11548006014234 -0.04296485216652352 -0.012144063076840288 0.03398555776217308 0.006870632048461716 -0.009545502544111371 -0.014573710150840783 -0.03168307790816585 -0.0326819109658076 4.746799762161536 0.04977647518491938 0.025120399075864008 -0.008207626021558164 -0.024757205987851832 -0.043499314647798944 0.028925352587030967 -0.010639243364038875 0.009397438213846391 -5.578249755566582 0.00787822305905362 0.022163442130181763 -6.720390760702777 -0.01280330949906638 0.0016954750416878991 -6.725553805305376 0.01959107574623351 -0.00686077626157863 0.04498318159634701 0.01927645212490391 -0.03255653811392516 8.029061114348742 3.496689857909644 -19.20315726915166 0.03561471606134964 10.362625534002209 0.0255541383339951 -5.600530185707599 -15.66119596937815 3.181952939740485 -0.003127260667910827 -0.04066440951048523 0.03908304722834204 0.035447997358665856 4.696872106875991 0.039930176272512045 12.423253157544462 -8.288302882261132 6.876503644922561 -0.010043213207587618 46.42883421844254 0.04511444248450111 -4.2798240341587555 -14.721618362007492 -3.8400207745827823 0.01535941539509724 -0.03921454697951421 -0.020149207718373346 -0.004686362073772244 -10.749325765325787 0.009695930949952566 
-0.026401612479391785 -0.016885615709145707 0.01810241766879545 -0.015206177736288226 -0.0002683525179349316 0.022813201906725814 4.255481865861581 2.8880755458526264 -2.054802520247334 -0.7566550990955647 3.488380243124241 0.4173675414553865 -0.6896649608434801 -1.1701720684659855 -0.04113536097838602 -0.49712606056395325 -0.3541228017758356 -0.38894741558041757 -0.1243108785446998 12.103182208185114 -0.8523985506944374 0.3059319878766366 -0.543177447404759 -1.356286303681653 0.6847017445284338 -16.79932772890178 -0.14807053719607066 -9.119916217635273 3.140716006084955 -18.300301668862062 79.15415079499675 2.8098992912779166 0.34447392441099334 -14.638963393276418 -2.114756701067898 55.91835196527885 21.34125400178539 -0.2760867139365587 -6.330088012957458 4.535059819980171 -0.13460659730489943 -1.5934492199950085 0.00871237088608403 0.009247409030156575 -56.26615598879318 -0.011569989512363063 0.00047107467331714123 -56.23393283616819 -38.80046963972709 -0.014982009002876846 -0.009439726008289054 0.0032355493158577027 0.04883120931681105 0.027047994373384402 0.0049966037891453745 -0.02019839967542324 0.01709438896263821 -36.65425796651215 0.013447366824771252 0.019287049754829082 0.001617753241878809 0.018777890671550924 0.02713977372573868 0.045547233172267124 -0.0247353365364918 0.01255611475283681 -19.722720626584486 0.02269205936076965 0.019228320041733003 -0.016726105082400352 -0.0034705883262433515 0.021416674537441806 -0.004160813281740158 0.020090774379177077 0.042603110938020515 24.099537741227806 0.023251319728437272 0.0015703667218835093 28.887907248089768 -0.003113194369233705 -0.045344706397957193 28.890121156119957 -0.004356195666766567 -0.007781043557262571 9.881905239905679 2.3469983503003875 15.22647246076243 -74.50512258670126 17.888162596082477 -12.460171379953563 -47.48707987047295 6.020803020174998 -91.44979188207849 -20.40129734743376 -9.186138857803222 5.785503475249654 -0.4286221807864238 0.10676248330678963 -8.172343769620568 -0.029668041305353502 -0.02553689957896552 44.58275588375673 0.018004492991736176 0.008507301715643725 44.57389566598102 12.495400314194189 -0.03127658521245663 0.01717789393310188 0.025118838718676078 -0.03366848665943302 -0.04244782379019587 0.04276669386233055 0.005347698850355757 0.026850796191853918 11.13068642066889 -0.003360035467928059 -0.004548526846322662 0.02043944271265229 -0.005041082817910418 -0.007306785685049637 0.03948681111414438 -0.044192080817927616 -0.006244935548944721 4.755667926126497 -0.014680069248458681 0.015967073965576468 0.002168596927255223 -0.016993773476521073 0.04189952151414447 -0.01056041546354486 -0.0012454077648730564 -0.004978182364273378 -5.641638727701261 0.016606059352036014 0.010332454133603359 -6.704259932913265 0.04602805118492001 0.045370764343693096 -6.684359741430274 0.027492038990178887 0.005247609480707993 -0.015891533068905502 0.006519751392199119 0.02766334337799627 8.039700567264338 3.532383660647543 -19.265367745712744 0.004017401993144143 10.409108092103251 0.04360685661565755 -5.616518208302569 -15.671172209433003 3.1828724827626074 -0.0042346731086217605 0.002037864489099542 0.014949693159052228 -0.039868519206660784 4.7245658538061575 -0.026653762171104597 12.471491376124526 -8.269792384769143 6.853749259070752 0.014851098768157633 46.42147695976971 -0.04230948336745084 -4.330468282550159 -14.700010105367785 -3.8088841319361815 -0.007954746053301162 -0.0013028537028524476 0.03128736735451195 0.012069100618627933 -10.727372077906372 0.04345875588069919 
